<svg width="24" height="24" viewBox="0 0 24 24" fill="none" xmlns="http://www.w3.org/2000/svg">
<path d="M2.00001 16.92V19.92C1.99888 20.1985 2.05592 20.4742 2.1675 20.7294C2.27907 20.9845 2.44271 21.2136 2.64793 21.4019C2.85315 21.5901 3.09543 21.7335 3.35926 21.8227C3.62308 21.9119 3.90263 21.9451 4.18001 21.92C7.25717 21.5856 10.213 20.5342 12.81 18.85C15.2262 17.3147 17.2747 15.2662 18.81 12.85C20.5 10.2412 21.5518 7.271 21.88 4.18001C21.905 3.90347 21.8721 3.62477 21.7835 3.36163C21.6949 3.09849 21.5524 2.85669 21.3652 2.65163C21.178 2.44656 20.9502 2.28271 20.6962 2.17053C20.4422 2.05834 20.1677 2.00027 19.89 2.00001H16.89C16.4047 1.99523 15.9342 2.16708 15.5662 2.48354C15.1983 2.79999 14.9579 3.23945 14.89 3.72001C14.7634 4.68007 14.5286 5.62273 14.19 6.53001C14.0555 6.88793 14.0263 7.27692 14.1061 7.65089C14.1859 8.02485 14.3711 8.36812 14.64 8.64001L15.91 9.91001C14.4865 12.4136 12.4136 14.4865 9.91001 15.91L8.64001 14.64C8.36812 14.3711 8.02485 14.1859 7.65089 14.1061C7.27692 14.0263 6.88793 14.0555 6.53001 14.19C5.62273 14.5286 4.68007 14.7634 3.72001 14.89C3.23424 14.9585 2.7906 15.2032 2.47347 15.5775C2.15634 15.9518 1.98784 16.4296 2.00001 16.92Z" stroke="white" stroke-width="2" stroke-linecap="round" stroke-linejoin="round"/>
<path d="M15 2.5H21L21.5 5L19.5 10.5L16 15.5L11.5 19L6.5 21H3.5L2.5 20V16L7.5 14.5L9.5 16.5L15 11.5V8.5V2.5Z" fill="white"/>
</svg>
