<svg width="16" height="16" viewBox="0 0 16 16" fill="none" xmlns="http://www.w3.org/2000/svg">
<path d="M2 4H3.33333H14" stroke="#C00808" stroke-linecap="round" stroke-linejoin="round"/>
<path d="M5.33337 4.00001V2.66668C5.33337 2.31305 5.47385 1.97392 5.7239 1.72387C5.97395 1.47382 6.31309 1.33334 6.66671 1.33334H9.33337C9.687 1.33334 10.0261 1.47382 10.2762 1.72387C10.5262 1.97392 10.6667 2.31305 10.6667 2.66668V4.00001M12.6667 4.00001V13.3333C12.6667 13.687 12.5262 14.0261 12.2762 14.2762C12.0261 14.5262 11.687 14.6667 11.3334 14.6667H4.66671C4.31309 14.6667 3.97395 14.5262 3.7239 14.2762C3.47385 14.0261 3.33337 13.687 3.33337 13.3333V4.00001H12.6667Z" stroke="#C00808" stroke-linecap="round" stroke-linejoin="round"/>
<path d="M6.66663 7.33334V11.3333" stroke="#C00808" stroke-linecap="round" stroke-linejoin="round"/>
<path d="M9.33337 7.33334V11.3333" stroke="#C00808" stroke-linecap="round" stroke-linejoin="round"/>
</svg>
